<svg width="124" height="24" viewBox="0 0 124 24" fill="none" xmlns="http://www.w3.org/2000/svg">
<path fill-rule="evenodd" clip-rule="evenodd" d="M12.0003 18.7717L6.00796 21.8294C5.6403 22.017 5.21651 21.7035 5.28834 21.297L6.42885 14.8429L1.61143 10.2852C1.30717 9.99738 1.47049 9.48542 1.88523 9.42692L8.55695 8.48599L11.5546 2.59079C11.7399 2.2263 12.2606 2.2263 12.446 2.59079L15.4436 8.48599L22.1153 9.42692C22.5301 9.48542 22.6934 9.99738 22.3891 10.2852L17.5717 14.8429L18.7122 21.297C18.7841 21.7035 18.3603 22.017 17.9926 21.8294L12.0003 18.7717Z" fill="#FFBA49"/>
<path fill-rule="evenodd" clip-rule="evenodd" d="M37.0003 18.7717L31.008 21.8294C30.6403 22.017 30.2165 21.7035 30.2883 21.297L31.4289 14.8429L26.6114 10.2852C26.3072 9.99738 26.4705 9.48542 26.8852 9.42692L33.5569 8.48599L36.5546 2.59079C36.7399 2.2263 37.2606 2.2263 37.446 2.59079L40.4436 8.48599L47.1153 9.42692C47.5301 9.48542 47.6934 9.99738 47.3891 10.2852L42.5717 14.8429L43.7122 21.297C43.7841 21.7035 43.3603 22.017 42.9926 21.8294L37.0003 18.7717Z" fill="#FFBA49"/>
<path fill-rule="evenodd" clip-rule="evenodd" d="M62.0003 18.7717L56.008 21.8294C55.6403 22.017 55.2165 21.7035 55.2883 21.297L56.4289 14.8429L51.6114 10.2852C51.3072 9.99738 51.4705 9.48542 51.8852 9.42692L58.5569 8.48599L61.5546 2.59079C61.7399 2.2263 62.2606 2.2263 62.446 2.59079L65.4436 8.48599L72.1153 9.42692C72.5301 9.48542 72.6934 9.99738 72.3891 10.2852L67.5717 14.8429L68.7122 21.297C68.7841 21.7035 68.3603 22.017 67.9926 21.8294L62.0003 18.7717Z" fill="#FFBA49"/>
<path fill-rule="evenodd" clip-rule="evenodd" d="M87.0003 18.7717L81.008 21.8294C80.6403 22.017 80.2165 21.7035 80.2883 21.297L81.4289 14.8429L76.6114 10.2852C76.3072 9.99738 76.4705 9.48542 76.8852 9.42692L83.5569 8.48599L86.5546 2.59079C86.7399 2.2263 87.2606 2.2263 87.446 2.59079L90.4436 8.48599L97.1153 9.42692C97.5301 9.48542 97.6934 9.99738 97.3891 10.2852L92.5717 14.8429L93.7122 21.297C93.7841 21.7035 93.3603 22.017 92.9926 21.8294L87.0003 18.7717Z" fill="#FFBA49"/>
<path fill-rule="evenodd" clip-rule="evenodd" d="M112 18.7717L106.008 21.8294C105.64 22.017 105.217 21.7035 105.288 21.297L106.429 14.8429L101.611 10.2852C101.307 9.99738 101.47 9.48542 101.885 9.42692L108.557 8.48599L111.555 2.59079C111.74 2.2263 112.261 2.2263 112.446 2.59079L115.444 8.48599L122.115 9.42692C122.53 9.48542 122.693 9.99738 122.389 10.2852L117.572 14.8429L118.712 21.297C118.784 21.7035 118.36 22.017 117.993 21.8294L112 18.7717Z" fill="#FFBA49"/>
</svg>
